<svg xmlns="http://www.w3.org/2000/svg" width="78" height="77" viewBox="0 0 78 77">
    <g fill="none" fill-rule="evenodd">
        <path fill="#E2A428" d="M33.581 50.295L38.263 50.295 38.263 48.843 33.581 48.843zM31.874 48.81L33.3 48.81 33.3 47.348 31.874 47.348zM30.226 36.195L30.226 37.821 28.734 37.821 28.734 42.42 30.159 42.42 30.159 40.81 31.775 40.81 31.775 39.2 33.391 39.2 33.391 37.59 35.024 37.59 35.024 36.195zM38.337 40.891L38.337 42.518 36.721 42.518 36.721 44.128 35.105 44.128 35.105 45.738 33.49 45.738 33.49 47.158 38.105 47.158 38.105 45.672 39.738 45.672 39.738 40.891zM27.077 44.03L28.544 44.03 28.544 42.61 27.077 42.61z" transform="translate(.943 .334)"/>
        <path fill="#E2A428" d="M22.355 34.677L22.355 42.453 23.929 42.453 23.929 47.15 23.929 50.288 22.288 50.288 22.288 45.516 22.288 44.228 20.996 44.228 20.739 44.228 20.739 53.467 19.123 53.467 19.123 55.076 17.507 55.076 17.507 56.686 15.891 56.686 15.891 58.296 14.276 58.296 14.276 59.906 12.66 59.906 12.66 61.516 11.252 61.516 11.252 62.919 9.636 62.919 9.636 64.529 8.021 64.529 8.021 66.139 6.405 66.139 6.405 67.749 4.789 67.749 4.789 69.359 3.256 69.359 3.256 70.886 1.64 70.886 1.64 74.156 4.922 74.156 4.922 72.546 6.454 72.546 6.454 71.018 8.07 71.018 8.07 69.408 9.686 69.408 9.686 67.799 11.301 67.799 11.301 66.188 12.917 66.188 12.917 64.579 14.325 64.579 14.325 63.175 15.941 63.175 15.941 61.565 17.557 61.565 17.557 59.955 19.173 59.955 19.173 58.345 20.788 58.345 20.788 56.735 22.404 56.735 22.404 55.126 31.676 55.126 31.676 54.869 31.676 53.582 30.383 53.582 25.594 53.582 25.594 51.947 28.743 51.947 33.456 51.947 33.456 53.515 41.26 53.515 41.26 50.362 38.387 50.362 38.387 51.93 33.382 51.93 33.382 50.444 28.577 50.444 28.577 48.81 30.234 48.81 30.234 47.324 31.849 47.324 31.849 45.713 33.465 45.713 33.465 44.104 35.081 44.104 35.081 42.494 36.696 42.494 36.696 40.884 38.273 40.884 38.192 37.735 35.032 37.655 35.032 39.225 33.416 39.225 33.416 40.834 31.8 40.834 31.8 42.445 30.184 42.445 30.184 44.054 28.569 44.054 28.569 45.664 27.077 45.664 27.077 47.315 25.437 47.315 25.437 42.527 23.945 42.527 23.945 37.54 25.52 37.54 25.52 34.677z" transform="translate(.943 .334)"/>
        <path fill="#E2A428" d="M25.586 42.329L27.044 42.329 27.044 37.664 25.586 37.664z" transform="translate(.943 .334)"/>
        <path fill="#ED334E" d="M39.828 1.576L39.828 3.152 35.083 3.152 35.083 4.729 31.861 4.729 31.861 6.305 28.639 6.305 28.639 7.881 27.057 7.881 27.057 9.458 25.475 9.458 25.475 11.113 23.893 11.113 23.893 14.186 22.311 14.186 22.311 18.798 20.729 18.798 20.729 23.702 19.118 23.702 19.118 33.217 20.714 33.217 20.714 33.207 22.354 33.207 22.354 33.217 25.519 33.217 25.519 33.207 27.16 33.207 27.16 33.217 28.58 33.217 28.58 34.677 28.58 34.736 35.024 34.736 35.024 36.195 38.188 36.195 38.267 37.66 39.738 37.738 39.738 40.891 41.202 40.891 41.202 47.312 41.26 47.312 42.725 47.312 42.725 48.727 42.737 48.727 42.737 50.362 42.725 50.362 42.725 53.515 42.737 53.515 42.737 55.15 42.725 55.15 42.725 56.74 52.275 56.74 52.275 55.135 57.196 55.135 57.196 53.559 61.825 53.559 61.825 51.983 64.909 51.983 64.909 50.406 66.571 50.406 66.571 48.831 68.153 48.831 68.153 47.255 69.734 47.255 69.734 44.044 71.316 44.044 71.316 40.833 72.898 40.833 72.898 36.104 74.48 36.104 74.48 23.377 72.957 23.377 72.957 18.824 71.375 18.824 71.375 15.555 69.793 15.555 69.793 12.285 68.211 12.285 68.211 10.592 66.629 10.592 66.629 9.399 65.431 9.399 65.431 7.823 63.732 7.823 63.732 6.247 60.451 6.247 60.451 4.67 57.171 4.67 57.171 3.094 52.601 3.094 52.601 1.576z" transform="translate(.943 .334)"/>
        <path fill="#000" d="M23.813 9.457v1.576H22.28v3.06h-1.574v4.583h-1.657v4.87h-1.513v20.675h1.582v-9.545h1.596v9.552h-1.616v9.213h-1.615v1.61h-1.616v1.61H14.25v1.61h-1.615v1.61h-1.617v1.404H9.612v1.61H7.995v1.61H6.38v1.61H4.765v1.61H3.149v1.527H1.616v1.61H0v3.541h1.392v1.387h3.554v-1.61h1.616v-1.527h1.533v-1.61H9.71v-1.61h1.616v-1.61h1.616v-1.61h1.615V64.81h1.409V63.2h1.615v-1.61h1.616v-1.61h1.616v-1.61h1.616v-1.61h9.246v-1.61h9.586v1.591h-9.579v1.576H52.43v-1.508h4.888v-1.65h4.598v-1.57h3.072v-1.527h1.581v-1.655h-1.662v1.576h-3.083v1.576h-4.629v1.576h-4.921v1.606h-9.55V55.15h.012v-1.635h-.011v-3.153h.01v-1.635h-.01v-1.415H41.26v1.415h-2.957v-1.42h1.433v.005h1.465v-6.42h-1.465v4.78h-1.632v1.487H33.49v-1.42h1.616v-1.61h1.616v-1.61h1.615V40.89h1.4v-3.153l-1.47-.078-.079-1.465h-3.164v1.395h-1.633v1.61h-1.616v1.61H30.16v1.61h-1.425v-4.6h1.492v-1.625h4.798v-1.46H28.58v1.46h.006v1.428H27.16v-2.946h1.42v-1.46h-1.42v-.01h-1.64v.01h-3.165v-.01h-1.64v.01h-1.597v-9.516h1.61v-4.903h1.583v-4.612h1.582v-3.072h1.582V9.457h-1.662zm-1.458 25.22h3.165v2.863h-1.575v4.987h1.492v4.789h1.64v-1.652h1.492v-1.61h1.615v-1.61H31.8v-1.61h1.615v-1.61h1.617v-1.57l3.16.08.08 3.15h-1.575v1.61H35.08v1.61h-1.616v1.61H31.85v1.61h-1.616v1.485h-1.657v1.635h4.806v1.486h5.004v-1.568h2.874v3.153h-7.804v-1.568H25.594v1.635h6.081v1.544h-9.27v1.61h-1.617v1.61h-1.615v1.61h-1.616v1.61h-1.616v1.61h-1.615v1.403h-1.41v1.61h-1.614v1.61H9.686v1.61H8.069v1.609H6.454v1.528H4.921v1.61h-3.28v-3.27h1.615V69.36H4.79v-1.61h1.616v-1.61H8.02v-1.61h1.616v-1.61h1.615v-1.403h1.41v-1.61h1.615v-1.61h1.616v-1.61h1.615v-1.61h1.616v-1.61h1.615v-9.238H22.288V50.288h1.641V42.453h-1.574v-7.776zm3.23 2.988h1.46v4.664h-1.46v-4.664zm1.492 6.365h1.467v-1.42h-1.467v1.42zm4.797 4.78H33.3v-1.462h-1.426v1.461zm1.707 1.486h4.681v-1.453h-4.68v1.453zM66.57 50.406L68.153 50.406 68.153 48.83 66.57 48.83z" transform="translate(.943 .334)"/>
        <path fill="#000" d="M68.152 48.831L69.734 48.831 69.734 47.255 68.152 47.255zM69.734 47.255L71.316 47.255 71.316 44.044 69.734 44.044zM71.316 44.044L72.898 44.044 72.898 40.832 71.316 40.832zM72.898 40.832L74.48 40.832 74.48 36.104 72.898 36.104zM72.956 18.824L72.956 23.377 74.48 23.377 74.48 36.104 76.062 36.104 76.062 23.377 74.539 23.377 74.539 18.824zM71.374 18.824L72.956 18.824 72.956 15.555 71.374 15.555zM69.793 15.554L71.374 15.554 71.374 12.285 69.793 12.285zM68.211 12.285L69.793 12.285 69.793 10.592 68.211 10.592zM25.474 9.458L27.056 9.458 27.056 7.882 25.474 7.882zM27.056 7.881L28.638 7.881 28.638 6.305 27.056 6.305zM28.638 6.305L31.86 6.305 31.86 4.729 28.638 4.729zM31.86 4.729L35.083 4.729 35.083 3.152 31.86 3.152zM35.083 3.152L39.829 3.152 39.829 1.576 35.083 1.576z" transform="translate(.943 .334)"/>
        <path fill="#000" d="M39.828 0L39.828 1.576 52.601 1.576 52.601 3.094 57.17 3.094 57.17 1.518 52.601 1.518 52.601 0zM57.171 4.671L60.452 4.671 60.452 3.095 57.171 3.095zM60.452 6.246L63.733 6.246 63.733 4.671 60.452 4.671zM63.732 7.823L65.431 7.823 65.431 6.246 63.732 6.246zM65.431 7.823L65.431 9.399 66.629 9.399 66.629 10.592 68.211 10.592 68.211 8.9 67.13 8.9 67.13 7.823z" transform="translate(.943 .334)"/>
    </g>
</svg>
