<svg xmlns="http://www.w3.org/2000/svg" width="304" height="181" viewBox="0 0 304 181">
    <g fill="none" fill-rule="evenodd">
        <path fill="#ED334E" d="M206.851 139.844L283.542 71.372 296.325 36.556 298.649 0 20.353 0 2.923 28.433 1.351 45.98 1.761 66.731 67.413 139.844z" transform="translate(2 2)"/>
        <path fill="#ED334E" stroke="#000" stroke-width="2.68" d="M206.851 139.844L283.542 71.372 296.325 36.556 298.649 0 20.353 0 2.923 28.433 1.351 45.98 1.761 66.731 67.413 139.844z" transform="translate(2 2)"/>
        <g>
            <path fill="#E52E2D" d="M0.542 0.043L51.674 67.392" transform="translate(2 2) translate(47.297 72.286)"/>
            <path stroke="#000" stroke-width="2.68" d="M0.542 0.043L51.674 67.392" transform="translate(2 2) translate(47.297 72.286)"/>
        </g>
        <g>
            <path fill="#E52E2D" d="M0.317 0.548L44.231 64.108" transform="translate(2 2) translate(60.81 70.935)"/>
            <path stroke="#000" stroke-width="2.68" d="M0.317 0.548L44.231 64.108" transform="translate(2 2) translate(60.81 70.935)"/>
        </g>
        <g>
            <path fill="#E52E2D" d="M69.98 0.043L0.437 68.818" transform="translate(2 2) translate(183.108 71.61)"/>
            <path stroke="#000" stroke-width="2.68" d="M69.98 0.043L0.437 68.818" transform="translate(2 2) translate(183.108 71.61)"/>
        </g>
        <g>
            <path fill="#E52E2D" d="M72.733 0.043L0.74 68.818" transform="translate(2 2) translate(170.946 71.61)"/>
            <path stroke="#000" stroke-width="2.68" d="M72.733 0.043L0.74 68.818" transform="translate(2 2) translate(170.946 71.61)"/>
        </g>
        <path stroke="#000" stroke-width="1.34" d="M124.386 1.388h9.297s-4.068 3.479-4.65 5.798c0 0-2.614-6.088-4.647-5.798z" transform="translate(2 2)"/>
        <path fill="#FCF5EB" stroke="#000" stroke-width="4" d="M.358 56.089l1.095-9.385c.1-.67.497-1.23 1.093-1.23h27.951c.397 0 .994.449.896 1.007l-.598 5.585h1.392l.896-8.267H15.676c-8.852 0-13.527-5.474-12.334-15.64l1.392-12.29C5.829 6.04 11.3.228 20.45.228h33.42c8.852 0 13.13 5.587 12.137 15.641l-.995 9.831c-.1.671-.498 1.118-1.095 1.118h-27.95c-.497 0-1.095-.447-.995-1.005l.696-5.922h-1.393l-.994 8.602h17.407c9.25 0 13.329 5.922 12.235 15.642l-1.294 11.73c-.995 9.161-7.659 15.864-15.815 15.864H12.593C3.74 71.73-.836 66.144.358 56.09zM60.727 70.612l7.56-69.267c.099-.67.497-1.117 1.094-1.117h46.153c8.952 0 13.527 5.587 12.334 15.642l-2.885 26.184c-1.193 10.056-1.47 14.128-15.616 14.482H92.06l-1.492 14.076c-.098.67-.497 1.118-1.093 1.118H61.623c-.398 0-.996-.447-.896-1.118z" transform="translate(2 2)"/>
        <path fill="#FCF5EB" stroke="#000" stroke-width="4" d="M127.876 15.87C128.97 6.15 134.342.228 143.59.228h33.421c8.556 0 13.23 5.25 12.136 15.64l-4.377 40.22c-.995 9.384-6.166 15.64-15.616 15.64h-33.42c-9.151 0-13.33-5.81-12.235-15.64l4.376-40.22zM249.533 15.87l-.58 8.602c-.504 6.777.657 11.415-5.153 13.155l3.644 6.619-2.884 26.366c-.1.67-.398 1.117-1.095 1.117h-27.95c-.398 0-.995-.446-.895-1.117l2.287-21.45-1.094-1.788-2.585 23.238c-.1.67-.398 1.117-1.095 1.117h-27.95c-.397 0-.995-.446-.895-1.117l7.559-69.266c.1-.67.497-1.117 1.095-1.117h46.351c8.554 0 12.334 5.139 11.24 15.64z" transform="translate(2 2)"/>
        <path fill="#FCF5EB" stroke="#000" stroke-width="4" d="M299.69 1.346l-3.366 33.974c-.1.67-.498.653-1.095.653h-8.639l-3.03 34.64c-.1.67-.498 1.116-.996 1.116h-28.53c-.498 0-.996-.447-.896-1.116l3.032-34.64h-7.79c-.398 0 .48-8.932.58-9.602l2.204-25.025c.099-.67 1.079-1.117 1.675-1.117h45.955c.397 0 .994.446.895 1.117z" transform="translate(2 2)"/>
        <path stroke="#000" stroke-width="1.608" d="M153.936 52.066L155.329 52.066 158.811 19.891 157.418 19.891zM95.541 36.873L97.43 19.891 95.939 19.891 94.049 36.873z" transform="translate(2 2)"/>
        <path fill="#E52E2D" d="M206.611 140.257L166.515 176.786 102.013 176.786 67.729 140.257z" transform="translate(2 2)"/>
        <path fill="#ED334E" stroke="#000" stroke-width="2.68" d="M206.611 140.257L166.515 176.786 102.013 176.786 67.729 140.257z" transform="translate(2 2)"/>
        <path fill="#FCF5EB" stroke="#000" stroke-width="4" d="M127.246 74.116l4.973 41.084-2.785 24.846c-.1.648-.399 1.08-1.094 1.08h-27.95c-.498 0-.995-.432-.897-1.08l1.492-13.611h-1.392L98.1 140.046c-.1.648-.496 1.08-1.093 1.08H69.056c-.397 0-.994-.432-.895-1.08l2.784-24.846 14.723-41.084c.198-.648.596-.864 1.094-.864h39.388c.597 0 .995.216 1.096.864z" transform="translate(2 2)"/>
        <path fill="#FCF5EB" stroke="#000" stroke-width="4" d="M166.674 141.126h-37.4c-.398 0-.995-.431-.894-1.08l7.558-66.975c.1-.65.497-1.08 1.094-1.08h27.852c.497 0 .994.43.895 1.08l-4.676 41.697h8.555c.397 0 .994.431.895 1.08l-2.785 24.198c-.099.649-.497 1.08-1.094 1.08z" transform="translate(2 2)"/>
        <path fill="#FCF5EB" stroke="#000" stroke-width="4" d="M205.009 141.126h-37.4c-.398 0-.995-.431-.896-1.08l7.56-65.713c.099-.649.497-1.08 1.094-1.08h27.851c.498 0 .995.431.895 1.08l-4.675 40.435h8.554c.398 0 .995.431.895 1.08l-2.784 24.198c-.1.649-.498 1.08-1.094 1.08z" transform="translate(2 2)"/>
        <path fill="#FCF5EB" stroke="#000" stroke-width="3" d="M95.763 89.176h15.182c.327 0 .543-.216.597-.54l1.41-11.358h10.14c.324 0 .542-.215.597-.484l.92-7.537c.055-.323-.217-.538-.487-.538h-10.14l.108-.754h10.14c.324 0 .542-.215.597-.54l1.517-12.165c.055-.324-.216-.539-.488-.539H99.992c-.325 0-.541.215-.596.54l-4.12 33.376c-.054.323.27.539.487.539z" transform="translate(2 2)"/>
        <path fill="#FCF5EB" stroke="#000" stroke-width="3" d="M123.066 81.639c-.595 4.738 1.673 7.537 6.64 7.537h18.14c5.13 0 7.937-3.014 8.477-7.537l2.375-19.381c.595-5.006-1.942-7.537-6.586-7.537h-18.14c-5.023 0-7.937 2.853-8.53 7.537l-2.376 19.381zm18.41-17.443h.756l-1.89 15.505h-.755l1.889-15.505z" transform="translate(2 2)"/>
        <g stroke="#000" stroke-width="1.608">
            <path d="M2.6 0.016L1.299 0.016 0.089 11.662 1.391 11.662z" transform="translate(2 2) translate(217.712 20.267)"/>
        </g>
        <path stroke="#000" stroke-width="1.608" d="M101 110L102.73 110 105 90 103.702 90z" transform="translate(2 2)"/>
        <path fill="#FCF5EB" stroke="#000" stroke-width="3" d="M185.242 55h-25.48c-.328 0-.546.212-.601.532l-4.155 32.936c-.055.32.273.532.491.532h15.365c.382 0 .547-.212.602-.532l1.421-11.05.602.85-1.259 10.2c-.054.32.274.532.493.532h15.365c.383 0 .546-.212.601-.532l1.586-12.537-3.226-3.506c2.624-1.222 3.992-3.028 4.374-5.897l.493-4.091c.6-4.994-1.969-7.437-6.672-7.437zm-10.347 14.667h-.71l.66-5.334h.71l-.66 5.334z" transform="translate(2 2)"/>
    </g>
</svg>
