<svg xmlns="http://www.w3.org/2000/svg" width="239" height="280" viewBox="0 0 239 280">
    <g fill="none" fill-rule="evenodd">
        <path fill="#FAFAFA" d="M71.947 173.738c-6.106 4.54-9.687 11.119-10.225 18.22-.554 11.158.414 21.815 3.92 32.483l.505.51c3.609-13.175 7.213-25.842 10.823-39.524 1.03-3.546-.477-7.104-1.476-10.66-.501-1.523-2.53-1.532-3.547-1.03M112.493 182.536c-.516 2.026-2.044 3.542-2.56 5.569-1.544 5.067-.553 10.65-.576 15.724.97 10.658 1.43 21.82 2.906 32.48l.504.509c3.604-12.16 5.178-24.328 8.782-36.488-.478-7.105.066-15.726-5.999-20.825-.514 1.519-2.543 1.51-3.057 3.03M147.007 178.624c-2.543 1.511-4.08 5.056-3.586 8.102 3.488 14.726 6.981 28.44 10.978 42.661 2.031-.499-.496-2.539 1.028-3.04.559-12.173.105-24.858-.857-37.037.02-4.566-2.493-10.157-7.563-10.686M34.922 171.55c-3.089 10.64-3.642 21.291-4.702 31.94-.003.507.505.51.503 1.017l.505.51c3.61-13.683 10.257-25.829 13.364-40.529.004-1.014.01-2.028-.497-2.538-5.069-1.036-7.634 5.548-9.173 9.6M180.009 172.17c-2.024-1.022-4.062.998-4.578 3.024-.009 2.03-.526 4.057-.025 5.58 5.028 10.676 10.562 21.353 14.574 32.531.027-6.595.562-13.188-.423-19.786-.473-8.12-2.975-16.247-9.548-21.349M199.766 60.141c-3.521-7.117-6.532-14.739-12.086-20.852-1.013-.511-1.516-1.528-2.525-2.546-4.041-4.077-9.623-3.593-14.693-4.629-7.1-.538-14.2-1.076-21.303-.599-10.154 1.479-19.796 2.452-29.432 1.903-8.622-.544-16.212-5.142-24.832-6.193-9.637-.549-19.275-.59-29.428.889-6.092.988-12.185 2.484-17.276 6.52C37.5 43.213 30.35 54.343 26.745 67.01c-3.598 11.146-4.153 22.304-7.751 33.449-.52 2.535.995 4.57.476 7.105-1.028 3.039-1.551 6.588-1.563 9.632-.004 1.014 1.006 2.033 1.508 3.049.997 4.063.473 8.12 2.997 11.174 5.053 4.587 10.11 8.16 15.672 12.75 3.54 2.552 7.086 3.581 10.63 5.118 3.548 1.03 6.583 3.073 10.125 5.117 9.112 4.604 18.235 6.674 27.86 9.758 7.094 2.059 14.192 3.105 21.795 4.659 7.097 1.045 13.18 2.086 20.28 2.624 1.522.006 3.044.012 4.568-.489 12.166 2.081 24.347 1.12 36.029-2.382 6.096-2.003 12.195-4.513 17.788-7.534 6.103-3.524 10.184-9.087 12.75-15.671.51-1.012 2.038-2.021 2.55-3.54 4.097-8.607 6.67-17.22 7.726-26.855 1.574-12.168-.912-23.847-3.904-36.035-2.001-6.604-3.497-12.697-6.515-18.798" transform="rotate(26 114 140.166)"/>
        <path fill="#0080C7" d="M210.185 114.974c-1.056 9.635-3.63 18.248-7.725 26.854-.513 1.52-2.04 2.529-2.551 3.541-2.566 6.584-6.647 12.147-12.75 15.671-5.593 3.021-11.692 5.531-17.787 7.534-11.683 3.502-23.864 4.463-36.03 2.382-1.524.501-3.046.495-4.568.489-7.1-.538-13.183-1.579-20.28-2.624-7.603-1.554-14.701-2.6-21.795-4.659-9.625-3.084-18.748-5.154-27.86-9.758-3.542-2.044-6.577-4.087-10.124-5.117-3.545-1.537-7.091-2.566-10.631-5.118-5.561-4.59-10.62-8.163-15.672-12.75-2.524-3.054-2-7.111-2.997-11.174-.501-1.016-1.512-2.035-1.508-3.049.012-3.044.535-6.593 1.563-9.632.519-2.535-.995-4.57-.476-7.105 3.598-11.145 4.153-22.303 7.752-33.449C30.35 54.343 37.5 43.213 48.19 34.634c5.09-4.036 11.184-5.532 17.276-6.52 10.154-1.479 19.79-1.438 29.428-.889 8.62 1.051 16.21 5.649 24.832 6.193 9.636.549 19.278-.424 29.432-1.903 7.104-.477 14.203.061 21.303.599 5.07 1.036 10.652.552 14.693 4.629 1.009 1.018 1.512 2.035 2.525 2.546 5.554 6.113 8.566 13.735 12.086 20.852 3.018 6.101 4.514 12.194 6.515 18.798 2.992 12.188 5.478 23.867 3.904 36.035m-20.205 98.331c-4.012-11.178-9.546-21.854-14.573-32.53-.501-1.524.015-3.551.024-5.58.516-2.027 2.554-4.047 4.578-3.025 6.573 5.102 9.075 13.23 9.548 21.349.985 6.599.45 13.191.423 19.786m-34.553 13.042c-1.524.501 1.003 2.541-1.028 3.04-3.997-14.222-7.49-27.934-10.978-42.661-.494-3.046 1.043-6.591 3.586-8.102 5.07.53 7.583 6.121 7.564 10.686.962 12.18 1.415 24.864.856 37.037m-42.66 10.471l-.504-.509c-1.476-10.66-1.935-21.822-2.905-32.481.022-5.073-.968-10.657.575-15.723.517-2.027 2.045-3.543 2.56-5.569.514-1.521 2.544-1.512 3.057-3.032 6.066 5.1 5.522 13.721 5.999 20.825-3.603 12.161-5.177 24.33-8.781 36.489M76.97 185.427c-3.61 13.682-7.215 26.349-10.823 39.524l-.505-.51c-3.506-10.668-4.475-21.325-3.92-32.484.538-7.1 4.118-13.679 10.225-18.219 1.016-.503 3.046-.494 3.547 1.029.999 3.556 2.505 7.113 1.476 10.66m-45.742 19.589l-.505-.509c.002-.508-.506-.51-.503-1.017 1.06-10.649 1.613-21.3 4.702-31.94 1.539-4.052 4.105-10.636 9.173-9.599.506.509.5 1.523.497 2.538-3.106 14.699-9.754 26.845-13.364 40.527M223.42 104.377c.004-1.014-1.008-1.525-1.004-2.541-1.47-12.18-3.446-24.365-6.948-36.048-5.545-8.14-7.533-17.788-12.062-26.431-2.514-5.083-6.558-8.653-10.09-13.233-4.033-5.597-8.07-10.688-12.614-15.781-1.517-1.02-3.542-2.044-5.065-2.051-14.202-.567-28.4-2.15-41.056-8.292-3.057 3.031-7.618 1.996-11.671.965-.506-.51-1.023 1.517-2.038 2.021-4.061.489-8.11-2.065-11.671.457-2.542 1.51-5.593 3.019-8.625.47-3.552-.015-6.604 2-9.145 3.004-3.051 1.509-6.086-.533-9.128-1.053l-2.536-.011c-1.52-.514-2.022-1.53-3.032-2.549l-.005 1.015C68.603 6.82 60.983 9.324 55.373 15.895c-3.55-.015-6.601 1.493-9.653 3.51-7.126 5.549-13.747 11.609-19.861 17.671-6.642 11.131-11.255 22.273-14.863 35.447-.002.508-1.527 1.009-2.04 2.02 0 .508-.001 1.015-.512 1.52-1.02 1.011-2.037 2.021-2.042 3.035-1.56 8.618-2.103 17.24-5.687 24.834-.51 1.013-.513 1.52-.517 2.534 1.497 5.587.46 10.655.439 15.729.5 1.524.49 4.06 2.518 4.576-1.533 2.53-3.575 5.565-3.08 8.104.458 11.67 1.93 23.344 6.448 34.525 3.51 9.653 6.005 19.303 10.02 28.959 3.013 7.622 6.534 14.739 10.56 22.366 4.027 7.12 8.058 13.731 12.598 19.839-.523 3.549.984 7.106 3 10.159 3.026 4.071 6.055 7.636 9.082 11.707 4.039 4.583 8.075 9.673 14.16 10.206 4.563.527 8.629-.977 13.19-.45 8.114 1.049 15.205 3.616 23.323 3.65 1.014.005 2.54-1.004 3.554-.999 4.054 1.032 7.61.033 11.67-.458 6.089.027 12.69-1.467 18.784-2.963 7.596 3.077 14.722-2.473 22.33-2.441 2.537.012 4.568.02 7.104.03 3.553-.492 6.1-3.017 8.14-5.545.509-.506.004-1.014.514-1.519 1.019-1.011 1.528-1.516 2.04-2.529 3.072-6.582 5.13-13.674 8.204-20.256.515-2.028 3.057-3.032 4.587-5.054 3.064-4.553 6.629-8.089 10.196-11.624 3.569-4.043 7.134-7.579 9.183-12.136.516-2.027 1.54-4.053 2.563-6.077 2.044-3.542 5.102-7.081 5.628-11.137 1.034-4.561.55-10.143 4.117-13.679-1.008-1.527-.494-3.046-.488-4.568.004-1.014 1.023-2.025 2.036-1.513-.503-1.017-2.02-2.039-1.51-3.05l1.015.004c.53-5.578 2.076-10.645 3.114-16.221l.01-2.536c1.037-5.069 2.074-10.137 1.587-15.212-1.476-10.66-1.938-21.316-3.414-31.976" transform="rotate(26 114 140.166)"/>
        <path fill="#0080C7" d="M151.176 125.608c-1.677-2.75-4.842-.957-7.025.106-5.723 2.785-11.274 5.923-16.892 8.92l-16.337 1.825c-5.907-1.463-11.815-2.925-17.723-4.39-2.219-.55-4.981-1.391-5.776 1.444-.664 2.37 1.305 4.63 3.682 5.024 6.739 1.116 13.55 1.795 20.335 2.645.84.54 1.686.525 2.537.02.205-.36.312-.731.386-1.107l2.614-.307c2.52.326 5.18-.52 7.68-.031 1.078.274 2.086.13 3.014-.502 2.898-1.59 6.875-.63 9.085-3.847 4.432 1.114 6.903-4.024 11.15-3.5 1.846-1.758 4.961-3.528 3.27-6.3" transform="rotate(26 114 140.166)"/>
        <path fill="#363636" d="M169.603 66.033L153.019 49.78l-6.562-1.585c-4.82-1.838-9.661-3.92-13.891 1.179-3.37 6.463-2.835 15.1-11.242 19.115 8.91.889 16.459-.4 22.116-7.311 2.457-3.001 4.727-6.891 9.113-2.293 4.526 1.036 5.047 6.313 8.729 8.246.557.683.784 1.389.836 2.106-.515 2.312-4.301 4.83-.266 6.854 3.358 2.639 8.098 3.52 10.48.827 3.124-3.528.462-7.767-2.73-10.885M152.991 98.634c5.812-5.782 6.938-12.103 2.193-19.099-5.728-3.096-11.567-4.508-16.663.821-3.749 3.923-4.52 8.75-1.558 13.614 3.878 6.37 9.725 6.402 16.028 4.664M74.509 117.922c-3.016-1.268-8.402-4.349-10.182.242-1.847 4.768 5.117 4.445 7.342 7.268l7.268 1.63c5.555.746 10.892-.362 16.177-1.907 1.209-3.688 7.706-2.08 7.598-8.087-9.543 1.816-18.703 4.85-28.203.854M163.026 104.403l-10.994 6.419c-3.006 3.22-7.472 1.46-10.912 3.2-2.552-.447-5.095-1.13-7.661-1.238-1.164-.05-2.375 1.038-3.566 1.609l4.228 3.05c1.626.448 3.25.897 4.876 1.344 4.686-.055 9.469.97 13.962-1.253 6.02.427 9.595-3.624 13.078-7.481 3.739-4.14-.152-4.74-3.011-5.65M91.115 58.5c-1.113-4.82-5.119-6.576-9.976-4.938-4.669 1.574-9.494 2.975-12.782 7.086-8.472 4.974-11.384 13.726-14.735 22.08-1.619 4.033-.445 8.173 3.986 8.971 4.12.741 10.944-3.716 10.003-4.983-6.446-8.7 1.606-13.86 3.7-20.368 3.601-.453 6.65.407 9.508 2.89 6.49 5.637 13.77 4.905 21.912 1.55-7.648-1.035-10.138-5.886-11.616-12.289M94.13 94.346c-.842-6.303-6.06-9.315-13.073-8.445-6.385.756-9.22 4.922-8.793 10.983.473 6.712 4.615 11.431 11.396 10.378 6.42-.997 11.373-6.139 10.47-12.916" transform="rotate(26 114 140.166)"/>
    </g>
</svg>
